<?xml version="1.0" standalone="no"?>
<!DOCTYPE svg PUBLIC "-//W3C//DTD SVG 20010904//EN"
 "http://www.w3.org/TR/2001/REC-SVG-20010904/DTD/svg10.dtd">
<svg version="1.0" xmlns="http://www.w3.org/2000/svg"
 width="406.000000pt" height="406.000000pt" viewBox="0 0 406.000000 406.000000"
 preserveAspectRatio="xMidYMid meet">
<metadata>
Created by potrace 1.11, written by Peter Selinger 2001-2013
</metadata>
<g transform="translate(0.000000,406.000000) scale(0.100000,-0.100000)"
fill="#000000" stroke="none">
<path d="M1322 2528 l3 -963 102 -3 103 -3 2 442 3 441 414 -441 415 -441 129
0 c76 0 127 4 125 9 -3 9 -63 74 -413 446 -123 131 -256 272 -507 540 l-66 70
97 90 c280 259 821 767 821 771 0 2 -60 4 -132 4 l-133 -1 -236 -222 c-130
-122 -300 -282 -378 -356 l-141 -133 0 356 0 356 -105 0 -105 0 2 -962z"/>
<path d="M2449 3268 c-129 -122 -313 -296 -409 -388 -96 -91 -197 -186 -223
-210 l-48 -45 102 -115 c56 -63 161 -178 234 -255 73 -77 249 -264 392 -415
l259 -275 132 -3 c73 -1 132 0 132 4 0 4 -40 48 -88 98 -118 121 -840 890
-874 931 l-27 33 52 48 c29 27 115 108 192 180 77 71 250 233 385 359 135 125
256 238 270 251 l25 24 -136 0 -135 0 -235 -222z"/>
<path d="M1739 1975 c-40 -22 -51 -63 -29 -112 10 -22 23 -44 30 -48 7 -4 -6
-25 -39 -60 -46 -48 -51 -59 -51 -98 0 -112 124 -150 238 -72 l36 25 31 -30
c21 -21 41 -30 63 -30 18 0 32 3 32 7 0 4 -18 26 -41 49 l-41 41 28 22 c26 20
26 22 9 41 -17 19 -18 19 -46 -3 l-30 -21 -51 52 -52 51 26 28 c54 58 61 97
25 138 -28 33 -98 43 -138 20z m95 -51 c14 -14 14 -18 0 -45 -21 -41 -43 -47
-65 -18 -23 30 -24 55 -1 68 25 15 48 13 66 -5z m45 -280 c-17 -20 -107 -54
-126 -47 -64 23 -69 69 -13 126 l41 40 54 -53 c39 -39 52 -57 44 -66z"/>
<path d="M0 890 c0 -20 7 -20 2030 -20 2023 0 2030 0 2030 20 0 20 -7 20
-2030 20 -2023 0 -2030 0 -2030 -20z"/>
<path d="M0 780 c0 -20 7 -20 2030 -20 2023 0 2030 0 2030 20 0 20 -7 20
-2030 20 -2023 0 -2030 0 -2030 -20z"/>
<path d="M0 670 c0 -20 7 -20 2030 -20 2023 0 2030 0 2030 20 0 20 -7 20
-2030 20 -2023 0 -2030 0 -2030 -20z"/>
<path d="M0 560 c0 -20 7 -20 2030 -20 2023 0 2030 0 2030 20 0 20 -7 20
-2030 20 -2023 0 -2030 0 -2030 -20z"/>
<path d="M0 450 c0 -20 7 -20 2030 -20 2023 0 2030 0 2030 20 0 20 -7 20
-2030 20 -2023 0 -2030 0 -2030 -20z"/>
</g>
</svg>
